# xmcd CD database file
#
# Track frame offsets:
#	150
#	22855
#	37880
#	58910
#	77017
#	96247
#	119345
#	134925
#	158750
#	172755
#	188670
#
# Disc length: 2729 seconds
#
# Revision: 2
# Processed by: cddbd v1.5.2PL0 Copyright (c) Steve Scherf et al.
# Submitted via: CDex 1.70beta2
#
DISCID=870aa70b
DTITLE=久石譲 - NHKスペシャル驚異の小宇宙[人体Ⅱ]サウンドトラック　脳と心　Vol.1
DYEAR=1999
DGENRE=New Age
TTITLE0=BRAIN and MIND 未知の秘境へのいざない
TTITLE1=NEW GENERATION 未来人への予感
TTITLE2=MEMORIES OF …　鮮やかな記憶の残照
TTITLE3=PRINCIPLE OF LOVE やさしさの芽生え
TTITLE4=WHY DO THE PEOPLE 長い旅路の果て
TTITLE5=GONE TO SCIENCE 時空を越え、憧憬を求めて
TTITLE6=IMAGINATION FACTORY 魔術師たちの部屋
TTITLE7=MYSTERIOUS NEURON きらめく神秘の世界
TTITLE8=NATURAL SELECTION 消えゆくものたちへの挽歌
TTITLE9=ETERNAL HARMONY ひらめきの瞬間
TTITLE10=EMOTION 永遠の春
EXTD=YEAR: 1999
EXTT0=
EXTT1=
EXTT2=
EXTT3=
EXTT4=
EXTT5=
EXTT6=
EXTT7=
EXTT8=
EXTT9=
EXTT10=
PLAYORDER=
